<svg version="1.1" xmlns="http://www.w3.org/2000/svg" xmlns:xlink="http://www.w3.org/1999/xlink" width="700" height="700" viewBox="-170,8,700,700"><g data-paper-data="{&quot;layerid&quot;:&quot;document&quot;,&quot;name&quot;:&quot;document&quot;,&quot;stage&quot;:false,&quot;vgx&quot;:{&quot;signed&quot;:true,&quot;selected&quot;:false,&quot;unsigned&quot;:false,&quot;contained&quot;:false,&quot;visible&quot;:true,&quot;id&quot;:&quot;u3tkpc45v_1714610646419112&quot;,&quot;changeset&quot;:&quot;glmjrjyac_1714610646419113&quot;,&quot;staticid&quot;:&quot;fxfr691nh_1714610646419114&quot;,&quot;name&quot;:&quot;document&quot;,&quot;altname&quot;:&quot;&quot;,&quot;owner&quot;:null,&quot;layer&quot;:true,&quot;class&quot;:&quot;item&quot;,&quot;type&quot;:&quot;default&quot;,&quot;ui&quot;:false,&quot;actor&quot;:false,&quot;props&quot;:{},&quot;locked&quot;:false,&quot;strokeScaling&quot;:true,&quot;container&quot;:false,&quot;layerid&quot;:&quot;document&quot;}}" id="document" fill-opacity="0" fill="#ffffff" fill-rule="nonzero" stroke="#000000" stroke-width="0" stroke-linecap="butt" stroke-linejoin="miter" stroke-miterlimit="10" stroke-dasharray="" stroke-dashoffset="0" font-family="none" font-weight="none" font-size="none" text-anchor="none" style="mix-blend-mode: normal"><rect x="-170" y="5.71429" transform="scale(1,1.4)" width="700" height="500" data-paper-data="{&quot;vgx&quot;:{&quot;signed&quot;:true,&quot;selected&quot;:false,&quot;unsigned&quot;:false,&quot;contained&quot;:false,&quot;visible&quot;:true,&quot;id&quot;:&quot;hoqkyx7cp_1714610646604234&quot;,&quot;changeset&quot;:&quot;y5gkamcxw_1714610646604235&quot;,&quot;staticid&quot;:&quot;5j4nejvwj_1714610646604236&quot;,&quot;name&quot;:&quot;Shape&quot;,&quot;altname&quot;:&quot;&quot;,&quot;owner&quot;:null,&quot;layer&quot;:false,&quot;class&quot;:&quot;document&quot;,&quot;type&quot;:&quot;document&quot;,&quot;ui&quot;:false,&quot;actor&quot;:true,&quot;props&quot;:{},&quot;locked&quot;:false,&quot;strokeScaling&quot;:true,&quot;container&quot;:false},&quot;v_data&quot;:null}" id="Shape 1" vector-effect="non-scaling-stroke"/></g><g fill="#ffffff" fill-rule="nonzero" stroke="#ffffff" stroke-width="none" stroke-linecap="none" stroke-linejoin="round" stroke-miterlimit="10" stroke-dasharray="" stroke-dashoffset="0" font-family="none" font-weight="none" font-size="none" text-anchor="none" style="mix-blend-mode: normal"><g data-paper-data="{&quot;layerid&quot;:&quot;stage&quot;,&quot;name&quot;:&quot;stage&quot;,&quot;stage&quot;:false,&quot;vgx&quot;:{&quot;signed&quot;:true,&quot;selected&quot;:false,&quot;unsigned&quot;:false,&quot;contained&quot;:false,&quot;visible&quot;:true,&quot;id&quot;:&quot;ikx2a2inn_1714610646420115&quot;,&quot;changeset&quot;:&quot;s2tueaq1m_1714610646420116&quot;,&quot;staticid&quot;:&quot;ncuqh90hb_1714610646420117&quot;,&quot;name&quot;:&quot;stage&quot;,&quot;altname&quot;:&quot;&quot;,&quot;owner&quot;:null,&quot;layer&quot;:true,&quot;class&quot;:&quot;item&quot;,&quot;type&quot;:&quot;default&quot;,&quot;ui&quot;:false,&quot;actor&quot;:false,&quot;props&quot;:{},&quot;locked&quot;:false,&quot;strokeScaling&quot;:true,&quot;container&quot;:false,&quot;layerid&quot;:&quot;stage&quot;}}" id="stage"><g id="layer1 1"><g id="Group 1"><path d="M-108.56866,389.24819" id="Path 1" stroke-width="1" stroke-linecap="round"/><path d="M-110.9346,386.88053" id="Path 1" stroke-width="1" stroke-linecap="round"/><path d="M-111.20389,386.15683" id="Path 1" stroke-width="1" stroke-linecap="round"/><g id="Group 1" stroke-width="3" stroke-linecap="square"><path d="M420.8399,400.5548v-24.24217h-85.98021v24.24217z" id="Path 1"/><path d="M420.8399,369.79814v-24.24217h-85.98021v24.24217z" id="Path 1"/><path d="M420.8399,339.68737v-24.24217h-85.98021v24.24217z" id="Path 1"/></g><path d="M324.9693,419.25443l-0.36594,0.38452l-23.30321,-24.48597l-37.30564,-39.1991v44.38934h-23.66915v-69.25983v-34.72234l23.66915,24.87048l37.30564,39.1991v-45.45212h23.66915v70.32261z" id="Path 1" stroke-width="3" stroke-linecap="round"/><path d="M90.69658,339.24065l27.8535,-27.66573h33.90545l0.42735,0.43256l-44.838,44.53573l-17.42,17.30257l-25.28274,25.1123h-34.7683l42.70274,-42.41487" id="Path 1" stroke-width="3" stroke-linecap="round"/><path d="M29.19186,311.57494h33.76588l27.73884,27.66573l-17.42,17.30257l-44.5812,-44.46369z" id="Path 1" stroke-width="3" stroke-linecap="round"/><path d="M150.57183,398.95809h-34.7683l-25.17866,-25.1123l17.42,-17.30257z" id="Path 1" stroke-width="3" stroke-linecap="round"/><g id="Group 1" stroke-width="3" stroke-linecap="round"><path d="M228.06241,358c0,23.03562 -18.01796,41.86292 -40.72943,43.15745v-25.23011c8.81287,-1.2172 15.59942,-8.77973 15.59942,-17.92734c0,-9.14761 -6.78655,-16.71014 -15.59942,-17.92734v-25.23011c22.71147,1.29453 40.72943,20.12183 40.72943,43.15745z" id="Path 1"/><path d="M139.88209,358c0,23.03562 18.01796,41.86292 40.72943,43.15745v-25.23011c-8.81287,-1.2172 -15.59942,-8.77973 -15.59942,-17.92734c0,-9.14761 6.78655,-16.71014 15.59942,-17.92734v-25.23011c-22.71147,1.29453 -40.72943,20.12183 -40.72943,43.15745z" id="Path 1"/></g><g id="Group 1" stroke-width="3" stroke-linecap="round"><path d="M-10.8218,399.08614c23.07626,-1.27487 41.39564,-20.39096 41.39564,-43.78578v-43.8535h-24.14119v4.66947v38.62469c0.00518,0.18582 0.00778,0.37228 0.00778,0.55935c0,10.05877 -7.53107,18.35856 -17.26223,19.5684z" id="Path 1"/><path d="M-17.05488,399.08614c-23.07626,-1.27487 -41.39564,-20.39097 -41.39564,-43.78578v-43.8535h24.14119v4.66947v38.62469c-0.00518,0.18582 -0.00778,0.37228 -0.00778,0.55935c0,10.05877 7.53107,18.35856 17.26223,19.5684z" id="Path 1"/></g></g></g></g></g></svg>